<svg xmlns="http://www.w3.org/2000/svg" xmlns:xlink="http://www.w3.org/1999/xlink" version="1.1" x="0px" y="0px" viewBox="0 0 100 125" enable-background="new 0 0 100 100" xml:space="preserve"><g><rect x="-192" width="185" height="99"/><rect y="-36" width="100" height="30"/><text transform="matrix(1 0 0 1 66 -19.5)" fill="#000000" font-family="'Helvetica'" font-size="2.4">http://thenounproject.com</text><text transform="matrix(1 0 0 1 7.166 -24.5)"><tspan x="0" y="0" fill="#000000" font-family="'Helvetica-Bold'" font-size="6.1578">The Noun Project</tspan><tspan x="1.12" y="4.8" fill="#000000" font-family="'Helvetica-Bold'" font-size="4">Icon Template</tspan></text><text transform="matrix(1 0 0 1 -178.5 10.5)" fill="#000000" font-family="'Helvetica-Bold'" font-size="6.1578">Reminders</text><line fill="#000000" stroke="#FFFFFF" stroke-miterlimit="10" x1="8" y1="-14.5" x2="18" y2="-14.5"/><line fill="#000000" stroke="#FFFFFF" stroke-miterlimit="10" x1="-179" y1="16.5" x2="-162" y2="16.5"/><g><g><g><rect x="-170.802" y="31.318" fill="#000000" width="8.721" height="8.642"/><path fill="#000000" d="M-164.455,42.312h4.747v-4.703h-4.747V42.312z M-159.266,42.749h-5.63V37.17h5.63V42.749      L-159.266,42.749z M-166.221,44.062h8.279v-8.203h-8.279V44.062L-166.221,44.062z M-157.5,44.5h-9.163v-9.079h9.163V44.5      L-157.5,44.5z"/><polygon fill="#000000" points="-166.149,44.133 -166.292,43.991 -158.013,35.787 -157.871,35.929     "/></g></g></g><rect x="-179" y="58" fill="none" width="35" height="32.5"/><text transform="matrix(1 0 0 1 -179 60.1572)"><tspan x="0" y="0" fill="#000000" font-family="'Helvetica-Bold'" font-size="3">Strokes</tspan><tspan x="0" y="5" fill="#000000" font-family="'Helvetica'" font-size="2.4">Try to keep strokes at 4px</tspan><tspan x="0" y="10" fill="#000000" font-family="'Helvetica'" font-size="2.4">Minimum stroke weight is 2px</tspan><tspan x="0" y="14.5" fill="#000000" font-family="'Helvetica'" font-size="2.4">For thicker strokes use even </tspan><tspan x="0" y="17.5" fill="#000000" font-family="'Helvetica'" font-size="2.4">numbers: 6px, 8px etc.</tspan><tspan x="0" y="22" fill="#000000" font-family="'Helvetica-Bold'" font-size="2.4">Remember to expand strokes </tspan><tspan x="0" y="25" fill="#000000" font-family="'Helvetica-Bold'" font-size="2.4">before saving as an SVG </tspan></text><rect x="-136.5" y="58" fill="none" width="35" height="32.5"/><text transform="matrix(1 0 0 1 -136.5 60.1572)"><tspan x="0" y="0" fill="#000000" font-family="'Helvetica-Bold'" font-size="3">Size</tspan><tspan x="0" y="5" fill="#000000" font-family="'Helvetica'" font-size="2.4">Cannot be wider or taller than </tspan><tspan x="0" y="8.5" fill="#000000" font-family="'Helvetica'" font-size="2.4">100px (artboard size)</tspan><tspan x="0" y="13.5" fill="#000000" font-family="'Helvetica'" font-size="2.4">Scale your icon to fill as much of </tspan><tspan x="0" y="16.5" fill="#000000" font-family="'Helvetica'" font-size="2.4">the artboard as possible</tspan></text><rect x="-94" y="58" fill="none" width="35" height="32.5"/><text transform="matrix(1 0 0 1 -94 60.1572)"><tspan x="0" y="0" fill="#000000" font-family="'Helvetica-Bold'" font-size="3">Ungroup</tspan><tspan x="0" y="5" fill="#000000" font-family="'Helvetica'" font-size="2.4">If your design has more than one </tspan><tspan x="0" y="8" fill="#000000" font-family="'Helvetica'" font-size="2.4">shape, make sure to ungroup</tspan></text><rect x="-50" y="58" fill="none" width="35" height="32.5"/><text transform="matrix(1 0 0 1 -50 60.1572)"><tspan x="0" y="0" fill="#000000" font-family="'Helvetica-Bold'" font-size="3">Save as</tspan><tspan x="0" y="5" fill="#000000" font-family="'Helvetica'" font-size="2.4">Save as .SVG and make sure </tspan><tspan x="0" y="8" fill="#000000" font-family="'Helvetica'" font-size="2.4">“Use Artboards” is checked</tspan></text><text transform="matrix(1.0074 0 0 1 -125.542 30.5933)" fill="#000000" font-family="'Helvetica'" font-size="2.5731">100px</text><text transform="matrix(1.0074 0 0 1 -41 39)" fill="#000000" font-family="'Helvetica-Bold'" font-size="5.1462">.SVG</text><rect x="-126.514" y="34.815" fill="#000000" width="10.261" height="10.185"/><rect x="-126.477" y="31.766" fill="#000000" width="0.522" height="2.337"/><rect x="-116.812" y="31.766" fill="#000000" width="0.523" height="2.337"/><rect x="-127" y="32.337" fill="#000000" width="11.233" height="0.572"/><g><rect x="-83.805" y="33.844" fill="#000000" width="10.305" height="10.156"/><rect x="-76.809" y="28.707" fill="#000000" width="3.308" height="3.261"/></g><rect x="-178.5" y="22.5" fill="#000000" stroke="#FFFFFF" stroke-miterlimit="10" width="30" height="30"/><rect x="-136.5" y="22.5" fill="#000000" stroke="#FFFFFF" stroke-miterlimit="10" width="30" height="30"/><rect x="-93.5" y="22.5" fill="#000000" stroke="#FFFFFF" stroke-miterlimit="10" width="30" height="30"/><rect x="-49.5" y="22.5" fill="#000000" stroke="#FFFFFF" stroke-miterlimit="10" width="30" height="30"/></g><g><path d="M69.787,55.469c-1.666,1.781-3.137,3.002-4.441,3.805l-4.707-4.706C65.458,51.565,68.021,53.854,69.787,55.469z    M78.551,45.218c-2.341-1.876-6.004-4.728-13.085,3.375C67.597,50.498,71.398,53.957,78.551,45.218z M88.882,4.309   C80.361,10.13,82.644,14.23,83.996,17C92.958,11.451,90.419,6.789,88.882,4.309z M71.098,32.573   c-4.634,6.135-9.627,11.979-14.955,17.498l2.053,2.053c5.833-6.013,11.01-12.095,15.024-17.417   c-0.306-0.336-0.596-0.682-0.92-1.006C71.909,33.311,71.507,32.938,71.098,32.573z M78.573,27.251   c2.785-4.135,4.358-6.886,4.579-7.008c-1.676-0.314-4.463,2.582-6.592,5.16C77.249,25.994,77.924,26.606,78.573,27.251z    M51.783,58.439l-2.05-2.049c-5.821,5.485-11.988,10.606-18.472,15.329c0.461,0.538,0.931,1.072,1.439,1.58   c0.196,0.196,0.399,0.382,0.601,0.572c5.254-3.878,10.73-8.312,15.932-13.076C50.092,60.02,50.94,59.231,51.783,58.439z    M77.294,40.536c-0.635-1.215-1.359-2.392-2.183-3.52c-0.43,0.492-0.869,1.028-1.324,1.624   C74.669,39.329,75.823,40.236,77.294,40.536z M74.255,23.25c5.76-8.687,1.356-11.301-1.102-12.773   C67.949,18.91,71.779,21.565,74.255,23.25z M51.829,39.057c-1.32,1.412-2.252,2.675-2.889,3.812l4.748,4.748   C56.218,43.038,53.499,40.582,51.829,39.057z M81.446,28.138c2.365,1.605,6.587,4.542,12.554-5.12   C91.432,21.466,87.421,19.133,81.446,28.138z M23.818,76.876c-5.848,3.847-11.914,7.396-18.196,10.598   c0.444,0.87,0.887,1.741,1.331,2.611c-0.289-0.104,5.85-2.745,14.094-7.899c1.527-0.938,3.127-1.963,4.779-3.062   C25.123,78.394,24.448,77.647,23.818,76.876z M59.548,30.029c-6.239,7.63-2.797,10.774-0.564,12.769   C65.81,34.981,61.788,31.815,59.548,30.029z M66.936,33.287c0.72-0.944,1.297-1.814,1.761-2.624   c-1.597-1.136-3.298-2.094-5.081-2.864C63.593,30.636,65.497,32.162,66.936,33.287z M85.221,36.224   c0.458-0.55,0.927-1.154,1.411-1.833c-0.947-0.662-2.102-1.452-3.536-1.687C83.873,33.847,84.586,35.02,85.221,36.224z"/><path d="M52.5,88.983c-9.091,0-18.182-3.46-25.102-10.381c-13.841-13.842-13.841-36.363,0-50.205   c13.841-13.842,36.363-13.841,50.205,0c13.841,13.842,13.841,36.363,0,50.205l0,0C70.682,85.523,61.591,88.983,52.5,88.983z    M29.947,34.482c-9.778,11.578-9.213,28.971,1.694,39.878c10.906,10.906,28.301,11.471,39.878,1.693L29.947,34.482z M34.261,30.312   l41.428,41.427c9.11-11.567,8.334-28.433-2.329-39.098C62.695,21.977,45.829,21.199,34.261,30.312z"/></g><text x="0" y="115" fill="#000000" font-size="20px" text-align="center" font-weight="bold" font-family="'Helvetica Neue', Helvetica, Arial-Unicode, Arial, Sans-serif">glutenfree</text></svg>