<?xml version="1.0" standalone="no"?>
<!DOCTYPE svg PUBLIC "-//W3C//DTD SVG 20010904//EN"
 "http://www.w3.org/TR/2001/REC-SVG-20010904/DTD/svg10.dtd">
<svg version="1.0" xmlns="http://www.w3.org/2000/svg"
 width="1920.000000pt" height="1920.000000pt" viewBox="0 0 1920.000000 1920.000000"
 preserveAspectRatio="xMidYMid meet">
<g transform="translate(0.000000,1920.000000) scale(0.100000,-0.100000)"
fill="#000000" stroke="none">
<path d="M15684 18590 c-27 -4 -66 -12 -85 -18 -30 -10 -392 -102 -459 -117
-14 -4 -47 -12 -75 -20 -95 -26 -170 -45 -270 -66 -55 -12 -127 -28 -160 -36
-33 -8 -78 -18 -100 -23 -22 -5 -83 -19 -135 -31 -52 -12 -115 -25 -140 -29
-25 -5 -63 -13 -85 -18 -22 -6 -65 -15 -95 -21 -95 -18 -213 -42 -275 -56 -33
-7 -100 -21 -150 -30 -49 -9 -119 -23 -155 -30 -36 -8 -76 -16 -90 -18 -31 -6
-164 -34 -250 -53 -36 -8 -85 -19 -109 -24 -25 -6 -59 -14 -75 -19 -17 -6 -60
-17 -96 -26 -36 -9 -85 -22 -110 -30 -25 -7 -72 -21 -105 -30 -33 -10 -64 -21
-70 -25 -5 -3 -50 -21 -100 -40 -158 -58 -339 -160 -550 -312 -44 -32 -84 -61
-90 -65 -5 -5 -39 -31 -75 -58 -166 -127 -390 -362 -511 -535 -35 -51 -87
-124 -115 -164 -28 -39 -65 -96 -81 -126 -16 -30 -53 -98 -83 -150 -53 -95
-150 -296 -150 -311 0 -4 -14 -38 -31 -76 -46 -102 -45 -101 -77 -198 -76
-226 -119 -417 -157 -688 -21 -150 -21 -545 1 -692 25 -174 52 -245 88 -232
12 5 106 184 106 202 0 13 127 266 165 330 23 39 44 77 47 85 17 48 374 549
446 626 11 11 34 40 53 65 128 167 470 522 649 675 58 49 111 95 119 103 57
54 357 226 471 270 19 8 49 20 65 27 77 32 234 74 276 74 17 0 34 -8 43 -22
14 -19 13 -24 -2 -52 -42 -75 -190 -257 -343 -420 -93 -99 -250 -276 -302
-338 -80 -98 -392 -538 -519 -732 -52 -79 -269 -432 -281 -456 -4 -8 -18 -33
-30 -55 -111 -193 -173 -311 -363 -695 -96 -195 -179 -364 -184 -375 -4 -11
-21 -49 -38 -85 -54 -114 -198 -443 -217 -495 -10 -27 -22 -54 -26 -60 -4 -5
-35 -82 -69 -170 -34 -88 -66 -169 -70 -180 -42 -96 -130 -333 -130 -347 0 -8
-4 -18 -9 -23 -4 -6 -30 -71 -56 -145 -26 -74 -53 -148 -60 -165 -7 -16 -26
-68 -43 -115 -17 -47 -47 -130 -68 -185 -20 -55 -40 -111 -45 -125 -4 -14 -29
-83 -54 -155 -72 -203 -330 -968 -365 -1085 -17 -58 -35 -116 -40 -130 -5 -14
-30 -92 -55 -175 -25 -82 -52 -168 -60 -190 -7 -22 -27 -87 -45 -145 -18 -58
-54 -172 -82 -255 -27 -82 -60 -184 -73 -225 -45 -143 -171 -505 -200 -575 -7
-16 -21 -52 -31 -80 -31 -84 -78 -170 -96 -173 -12 -2 -25 13 -44 50 -24 47
-102 256 -124 333 -5 17 -23 77 -40 135 -18 58 -45 152 -61 210 -17 58 -41
146 -56 195 -14 50 -31 114 -39 143 -8 28 -21 78 -30 110 -8 31 -19 76 -24
100 -5 24 -12 47 -15 51 -2 5 -23 80 -45 167 -39 153 -85 327 -136 519 -13 50
-33 131 -45 180 -11 50 -24 99 -29 110 -5 11 -10 31 -13 45 -2 14 -15 61 -27
105 -12 44 -26 94 -30 110 -4 17 -18 66 -30 110 -12 44 -25 98 -30 120 -7 37
-59 228 -95 350 -14 47 -50 174 -62 220 -3 11 -25 88 -49 170 -24 83 -50 173
-58 200 -26 92 -78 260 -86 280 -4 11 -20 61 -35 110 -84 270 -236 713 -330
955 -15 39 -64 166 -120 310 -20 52 -52 132 -71 177 -19 45 -58 142 -88 215
-30 73 -66 160 -81 193 -33 72 -61 135 -105 235 -18 41 -36 80 -40 85 -4 6
-34 62 -66 125 -89 177 -221 404 -375 640 -104 159 -129 196 -194 279 -16 21
-48 64 -70 96 -40 58 -112 150 -240 310 -38 48 -81 102 -95 119 -35 46 -176
213 -224 267 -23 25 -66 73 -96 108 -30 35 -64 73 -75 85 -11 13 -38 43 -59
67 -276 309 -577 609 -780 778 -43 35 -92 76 -109 91 -91 79 -267 213 -387
295 -47 32 -87 61 -90 65 -12 15 -302 187 -399 235 -128 64 -162 79 -266 114
-153 53 -214 62 -235 36 -16 -20 -6 -45 50 -120 45 -61 226 -275 246 -290 7
-5 39 -42 71 -81 32 -39 85 -102 118 -140 33 -38 78 -92 100 -118 59 -72 114
-138 139 -166 87 -97 357 -443 541 -695 69 -93 146 -199 172 -234 27 -35 54
-73 62 -85 62 -90 188 -281 196 -294 6 -9 12 -19 15 -22 26 -26 288 -453 438
-715 128 -222 136 -238 230 -415 37 -69 86 -161 109 -205 77 -142 293 -586
353 -725 18 -41 48 -109 67 -150 19 -41 38 -84 43 -95 4 -11 22 -56 40 -100
17 -44 36 -88 42 -98 5 -10 49 -125 99 -255 49 -131 93 -246 99 -257 5 -11 18
-47 29 -80 11 -33 32 -91 46 -130 28 -73 168 -481 189 -550 7 -22 15 -47 19
-55 7 -18 134 -423 183 -585 13 -44 38 -123 54 -175 16 -52 40 -133 54 -180
14 -47 32 -107 41 -135 8 -27 28 -97 45 -155 17 -58 37 -123 45 -145 7 -22 21
-69 30 -105 10 -36 21 -76 25 -90 4 -14 18 -61 30 -105 12 -44 28 -100 36
-123 8 -24 23 -78 35 -120 11 -43 26 -99 34 -127 51 -176 76 -264 85 -292 13
-39 40 -137 50 -183 5 -19 22 -89 40 -155 17 -66 35 -136 39 -155 5 -19 13
-53 19 -75 6 -22 18 -69 27 -105 8 -36 20 -81 25 -100 5 -19 24 -93 41 -165
17 -71 37 -152 45 -180 7 -27 27 -108 44 -180 17 -71 35 -146 40 -165 5 -19
16 -69 26 -110 9 -41 22 -95 29 -120 7 -25 21 -79 30 -120 26 -121 76 -334
115 -495 18 -73 44 -190 71 -320 6 -27 17 -79 25 -115 8 -36 21 -96 29 -135 8
-38 22 -104 30 -145 9 -41 20 -95 24 -120 26 -136 85 -413 119 -560 11 -47 32
-141 47 -210 36 -168 82 -360 107 -445 25 -83 72 -137 133 -154 149 -40 739
-40 886 -1 67 18 102 51 144 136 23 44 46 102 53 129 43 168 66 274 96 445 9
52 22 119 27 148 6 29 15 81 20 115 5 34 16 105 25 157 8 52 19 122 23 155 5
33 14 83 19 110 6 28 18 102 27 165 9 63 23 156 30 205 8 50 22 137 30 195 29
197 34 228 80 498 8 48 21 130 30 182 15 87 31 177 55 305 5 28 14 75 19 105
10 51 27 136 67 335 9 44 22 109 30 145 8 36 20 88 26 115 15 70 46 203 57
245 5 19 16 64 25 100 25 106 84 340 101 405 9 33 27 101 40 150 13 50 31 115
40 145 9 30 23 80 31 110 8 30 26 91 39 135 22 73 48 162 91 315 148 515 500
1551 618 1815 7 17 22 53 31 80 10 28 22 54 27 60 4 5 8 15 8 22 0 7 20 56 45
109 25 53 45 98 45 100 0 8 85 186 152 319 89 177 176 320 246 410 119 151
164 180 342 220 41 9 100 23 130 30 53 13 378 77 490 96 97 17 392 102 495
144 33 13 94 36 135 51 41 14 161 69 265 120 188 93 202 100 260 139 36 25 53
35 96 59 68 38 346 252 429 330 203 191 386 394 474 526 84 126 136 208 136
214 0 3 17 41 38 84 21 43 41 87 45 98 3 10 17 51 30 89 57 157 118 470 151
765 9 74 21 178 26 230 6 52 15 149 21 215 31 392 53 601 69 675 5 25 17 81
25 125 14 73 32 150 55 230 27 97 43 155 54 190 54 169 106 380 106 427 0 17
-7 31 -19 38 -22 11 -90 11 -167 0z"/>
<path d="M13325 3959 c-96 -9 -193 -39 -246 -77 -24 -18 -96 -75 -159 -127
-63 -52 -118 -95 -122 -95 -14 0 -20 43 -19 141 0 55 -4 111 -9 123 -8 23 -9
23 -57 9 -26 -8 -64 -21 -83 -28 -39 -15 -133 -39 -230 -59 -36 -8 -81 -19
-100 -25 -31 -9 -117 -18 -203 -20 l-28 -1 3 -72 3 -73 122 -5 c71 -3 127 -10
133 -16 13 -13 19 -1133 6 -1172 -11 -34 -42 -45 -156 -51 l-105 -6 -3 -64
c-2 -36 2 -69 8 -75 10 -10 956 -14 966 -3 8 8 16 97 10 120 -5 23 -10 24
-112 30 -101 5 -108 7 -136 34 l-29 29 1 499 0 500 25 37 c14 21 37 45 52 55
16 10 30 21 33 24 3 4 33 19 67 33 55 23 76 26 174 26 106 0 115 -2 173 -31
61 -31 116 -94 116 -132 0 -9 9 -34 20 -55 20 -38 20 -52 16 -543 -3 -277 -8
-529 -11 -560 -6 -48 -4 -57 11 -63 14 -5 192 -7 587 -6 l88 0 -3 73 -3 72
-81 5 c-76 5 -83 8 -115 40 l-34 33 -5 511 c-4 366 -8 518 -17 536 -6 14 -15
55 -18 92 -4 37 -11 70 -16 74 -5 3 -16 21 -24 40 -18 44 -97 123 -158 157
-27 14 -72 30 -100 33 -29 4 -63 11 -77 17 -48 18 -85 22 -155 16z"/>
<path d="M7211 3949 c-13 -5 -53 -14 -89 -19 -35 -5 -72 -16 -81 -24 -10 -9
-24 -16 -32 -16 -8 0 -30 -11 -49 -25 -19 -14 -38 -25 -42 -25 -8 0 -161 -99
-243 -157 -44 -31 -133 -153 -141 -193 -3 -14 -14 -46 -25 -72 -10 -26 -19
-68 -19 -95 0 -26 -7 -70 -16 -98 -23 -69 -23 -244 0 -304 9 -24 16 -69 16
-100 0 -38 6 -66 20 -89 11 -18 20 -40 21 -50 1 -32 84 -162 146 -228 41 -44
146 -124 163 -124 5 0 10 -4 10 -10 0 -5 12 -13 28 -16 15 -4 41 -15 59 -26
18 -11 59 -21 100 -24 37 -3 95 -15 128 -26 68 -23 177 -20 241 7 20 8 57 15
83 15 25 0 66 9 90 20 24 11 48 20 55 20 6 0 55 21 108 47 76 37 98 53 103 73
4 13 12 31 18 39 7 8 17 35 24 60 10 40 10 48 -4 58 -18 14 -60 7 -83 -13 -8
-7 -50 -24 -94 -38 -69 -23 -95 -26 -220 -26 -77 0 -157 5 -176 10 -68 17
-125 41 -140 59 -8 10 -31 27 -50 39 -19 11 -49 36 -66 54 -53 57 -124 187
-124 228 0 14 -9 42 -20 63 -17 31 -20 53 -18 110 l3 72 335 5 c218 3 342 9
355 16 11 6 60 14 110 18 50 4 99 13 111 21 12 8 46 17 75 21 30 4 60 11 67
17 16 12 16 175 1 214 -7 15 -15 53 -19 84 -4 32 -20 83 -35 115 -25 55 -89
144 -108 152 -4 2 -21 15 -36 28 -16 13 -55 38 -87 55 -32 16 -63 34 -69 38
-35 28 -337 60 -384 40z m163 -168 c70 -41 90 -65 126 -150 28 -69 30 -82 30
-200 0 -70 -4 -131 -9 -137 -6 -5 -130 -7 -318 -4 l-308 5 -3 94 c-5 151 44
289 126 359 61 51 92 61 206 61 91 1 102 -1 150 -28z"/>
<path d="M8986 3949 c-10 -6 -53 -15 -95 -20 -157 -17 -271 -72 -383 -184 -60
-60 -108 -122 -108 -140 0 -7 -7 -18 -15 -25 -7 -6 -17 -33 -21 -58 -4 -26
-12 -58 -19 -72 -25 -51 -27 -114 -5 -176 11 -32 20 -70 20 -84 0 -69 116
-223 191 -254 19 -8 41 -22 49 -30 7 -9 21 -16 31 -16 10 0 33 -13 50 -28 l32
-29 -47 -44 c-26 -24 -60 -49 -75 -56 -49 -21 -138 -119 -146 -160 -4 -21 -13
-50 -21 -65 -35 -68 1 -174 76 -226 28 -19 59 -32 78 -32 76 0 42 -52 -73
-114 -129 -68 -210 -137 -221 -186 -3 -14 -12 -40 -20 -58 -16 -38 -19 -153
-3 -169 6 -6 15 -30 20 -53 10 -46 29 -74 100 -147 78 -82 104 -101 175 -129
38 -15 83 -33 100 -40 18 -8 72 -18 120 -23 49 -5 107 -14 129 -20 58 -15 221
-13 285 4 30 8 89 18 130 21 41 4 84 13 95 19 11 7 37 16 58 20 90 15 259 118
362 219 117 115 190 239 201 341 4 33 13 77 20 99 18 50 18 116 0 163 -8 21
-20 64 -26 95 -6 31 -18 62 -26 68 -7 7 -14 18 -14 24 -2 41 -109 105 -188
113 -31 3 -67 12 -79 19 -18 11 -103 14 -446 14 l-423 0 -47 30 -47 30 0 68
c0 66 2 71 37 107 47 48 93 68 128 55 42 -16 135 -12 216 10 41 11 91 20 112
20 21 0 55 8 75 19 20 10 53 26 72 36 196 98 266 166 328 315 12 30 25 73 28
95 3 22 13 55 21 73 17 39 13 163 -8 230 -20 66 -7 72 156 72 134 0 155 5 155
41 0 9 6 22 14 28 22 19 68 117 64 137 -3 18 -21 19 -338 26 -184 4 -366 12
-405 18 -101 17 -405 23 -429 9z m217 -168 c59 -30 100 -75 133 -148 14 -31
19 -76 22 -234 3 -183 2 -199 -17 -242 -12 -25 -21 -50 -21 -54 0 -15 -74 -89
-111 -111 -32 -19 -51 -22 -151 -22 -102 0 -117 2 -133 20 -10 11 -26 20 -36
20 -18 0 -89 95 -89 121 -1 8 -9 32 -20 54 -17 35 -19 63 -20 241 0 171 2 204
16 214 8 8 21 27 28 44 16 38 58 77 111 105 32 17 57 21 135 21 85 0 101 -3
153 -29z m373 -1594 c22 -15 54 -47 70 -70 29 -42 29 -42 29 -198 0 -122 -3
-160 -15 -174 -17 -20 -35 -51 -50 -84 -13 -30 -120 -131 -139 -131 -8 0 -22
-6 -30 -13 -27 -24 -113 -48 -201 -59 -124 -14 -317 -4 -372 20 -23 11 -55 22
-69 26 -36 8 -149 122 -176 178 -33 64 -33 240 -2 322 21 55 98 145 157 184
34 22 123 27 477 27 l280 -1 41 -27z"/>
<path d="M10955 3948 c-11 -7 -42 -15 -70 -19 -51 -7 -127 -36 -204 -79 -24
-14 -59 -33 -79 -43 -19 -10 -41 -25 -49 -33 -8 -8 -18 -14 -23 -14 -4 0 -27
-12 -49 -27 l-41 -27 0 -103 c0 -75 4 -105 13 -107 6 -2 28 -8 47 -15 24 -7
36 -8 38 -1 2 6 14 23 26 38 12 15 28 46 35 70 9 32 22 49 53 70 39 26 49 27
178 30 133 4 139 3 196 -24 96 -45 138 -87 173 -170 26 -63 31 -86 31 -159 l0
-86 -46 -19 c-28 -13 -69 -20 -107 -20 -40 -1 -76 -8 -102 -20 -22 -11 -56
-20 -75 -20 -19 0 -53 -9 -76 -19 -23 -10 -61 -22 -85 -26 -24 -4 -55 -13 -69
-20 -14 -8 -61 -26 -104 -41 -110 -38 -187 -98 -226 -175 -16 -33 -30 -72 -30
-87 -1 -15 -7 -38 -15 -52 -19 -33 -19 -150 0 -209 8 -25 17 -62 20 -81 11
-74 145 -210 206 -210 16 0 40 -6 52 -14 30 -19 105 -27 147 -16 140 36 178
57 295 156 28 23 69 52 93 64 23 12 46 28 50 35 10 17 52 38 60 30 4 -4 10
-56 13 -117 4 -60 11 -114 16 -119 14 -14 629 -17 643 -3 6 6 10 38 8 75 l-3
64 -84 6 c-76 6 -86 9 -115 38 l-31 31 -5 528 c-4 391 -8 534 -17 555 -7 16
-13 44 -13 63 0 40 -37 112 -84 162 -32 35 -126 102 -142 102 -6 0 -27 9 -49
20 -22 11 -58 20 -81 20 -23 0 -61 7 -84 15 -51 18 -206 20 -235 3z m259 -864
c14 -5 16 -33 16 -211 l0 -205 -47 -43 c-26 -24 -60 -46 -76 -49 -17 -3 -37
-16 -45 -27 -14 -20 -22 -21 -133 -18 -131 4 -118 -1 -192 87 -25 32 -27 39
-27 131 0 90 2 100 29 143 28 44 121 118 149 118 7 0 30 9 52 20 22 11 51 20
66 20 14 0 40 7 57 14 45 21 123 31 151 20z"/>
<path d="M5670 3920 l-85 -5 0 -70 0 -70 92 -6 c113 -7 133 -20 133 -86 0 -24
-4 -51 -10 -61 -5 -9 -17 -36 -25 -59 -8 -24 -22 -62 -30 -85 -8 -24 -22 -55
-30 -70 -8 -14 -15 -31 -15 -38 0 -6 -9 -30 -19 -53 -11 -24 -23 -55 -26 -70
-4 -15 -11 -27 -15 -27 -4 0 -11 -12 -15 -27 -7 -28 -14 -47 -65 -158 -15 -33
-38 -82 -50 -110 -12 -27 -28 -63 -35 -80 -8 -16 -26 -61 -42 -99 -30 -73 -67
-111 -84 -85 -5 8 -9 23 -9 34 0 11 -9 35 -20 53 -11 18 -20 38 -20 45 0 7 -9
29 -20 50 -11 20 -20 43 -20 49 0 7 -11 36 -25 63 -13 28 -25 57 -25 65 0 9
-4 20 -9 25 -5 6 -21 42 -35 80 -15 39 -36 89 -46 113 -11 23 -20 48 -20 55 0
7 -9 29 -20 50 -11 20 -20 46 -20 58 0 18 -34 102 -62 153 -18 33 -29 153 -16
181 12 27 35 33 133 38 l60 2 0 70 0 70 -453 3 -453 2 3 -72 3 -73 73 -6 c91
-9 101 -17 147 -119 8 -19 20 -42 25 -50 6 -8 15 -26 20 -40 6 -14 26 -55 45
-93 19 -37 35 -78 35 -91 0 -13 9 -35 20 -49 11 -14 20 -33 20 -42 0 -10 9
-32 19 -49 10 -17 22 -45 26 -63 3 -17 13 -37 21 -44 8 -6 14 -19 14 -28 0 -9
9 -33 20 -54 11 -20 20 -43 20 -50 0 -7 8 -28 19 -47 10 -19 21 -46 25 -60 7
-24 34 -84 63 -142 7 -14 13 -34 13 -45 0 -10 9 -35 20 -56 11 -20 20 -43 20
-50 0 -7 9 -29 20 -50 11 -20 20 -45 20 -54 0 -10 8 -31 18 -48 10 -16 22 -45
25 -64 4 -19 14 -42 21 -50 8 -9 16 -27 18 -41 3 -24 7 -25 93 -31 50 -4 119
-4 155 0 54 5 65 9 69 26 2 11 12 32 22 47 11 14 19 37 19 51 0 13 6 30 14 36
8 7 18 26 22 43 3 17 15 45 25 62 10 17 19 37 19 44 0 8 9 25 20 39 11 14 20
35 20 47 0 12 6 30 14 41 7 11 17 31 21 45 4 14 32 74 61 134 30 60 57 119 60
130 9 30 43 108 54 126 6 8 15 26 21 40 23 55 62 131 69 135 5 3 12 19 15 36
4 17 22 62 41 100 19 37 34 71 34 75 0 3 8 18 19 32 10 15 22 38 26 52 4 14
14 33 22 42 8 9 22 31 31 49 27 52 60 70 143 77 l74 7 3 73 3 72 -223 2 c-123
0 -234 2 -248 2 -14 1 -63 -1 -110 -4z"/>
</g>
</svg>
