<?xml version="1.0" standalone="no"?>
<!DOCTYPE svg PUBLIC "-//W3C//DTD SVG 20010904//EN"
 "http://www.w3.org/TR/2001/REC-SVG-20010904/DTD/svg10.dtd">
<svg version="1.0" xmlns="http://www.w3.org/2000/svg"
 width="129.000000pt" height="151.000000pt" viewBox="0 0 129.000000 151.000000"
 preserveAspectRatio="xMidYMid meet">
<g transform="translate(0.000000,151.000000) scale(0.100000,-0.100000)"
fill="#000000" stroke="none">
<path d="M271 1336 c-12 -15 -2 -27 33 -40 16 -6 13 -11 -25 -35 -121 -77
-181 -186 -202 -366 -8 -66 -18 -129 -22 -139 -8 -18 -5 -19 46 -13 120 14
259 112 331 232 18 30 36 55 39 55 8 0 115 -271 149 -372 16 -52 26 -68 40
-68 25 0 31 13 75 149 20 62 73 198 117 302 83 198 111 237 180 261 46 16 33
43 -20 43 -212 -3 -242 -5 -242 -20 0 -8 18 -22 40 -31 21 -9 42 -24 45 -35 4
-11 -21 -91 -61 -196 -73 -196 -81 -213 -93 -213 -19 0 -176 393 -167 417 3 7
23 20 46 29 40 16 51 31 28 38 -7 3 -83 7 -169 10 -125 4 -159 3 -168 -8z m78
-168 c-28 -35 -73 -100 -101 -146 -28 -45 -53 -81 -55 -79 -8 9 41 128 74 175
32 46 104 110 125 112 5 0 -15 -28 -43 -62z"/>
<path d="M54 418 c38 -121 50 -148 60 -148 6 0 24 36 38 81 16 47 22 79 15 76
-6 -2 -20 -32 -31 -66 l-20 -63 -21 63 c-12 35 -27 65 -33 67 -7 2 -10 -2 -8
-10z"/>
<path d="M190 350 l0 -80 45 0 c25 0 45 5 45 10 0 6 -16 10 -35 10 -31 0 -35
3 -35 25 0 21 5 25 30 25 17 0 30 5 30 10 0 6 -13 10 -30 10 -25 0 -30 4 -30
25 0 21 5 25 29 25 17 0 33 5 36 10 4 6 -12 10 -39 10 l-46 0 0 -80z"/>
<path d="M325 405 c-54 -53 -14 -140 59 -133 28 3 31 7 34 41 3 34 1 37 -22
37 -14 0 -26 -4 -26 -10 0 -5 7 -10 15 -10 8 0 15 -9 15 -20 0 -15 -7 -20 -24
-20 -32 0 -56 25 -56 59 0 36 28 61 69 61 19 0 30 4 26 10 -12 19 -65 11 -90
-15z"/>
<path d="M450 350 l0 -80 45 0 c25 0 45 5 45 10 0 6 -16 10 -35 10 -31 0 -35
3 -35 25 0 21 5 25 30 25 17 0 30 5 30 10 0 6 -13 10 -30 10 -25 0 -30 4 -30
25 0 21 5 25 29 25 17 0 33 5 36 10 4 6 -12 10 -39 10 l-46 0 0 -80z"/>
<path d="M550 420 c0 -5 11 -10 25 -10 24 0 25 -2 25 -70 0 -40 4 -70 10 -70
6 0 10 30 10 70 0 68 1 70 25 70 14 0 25 5 25 10 0 6 -27 10 -60 10 -33 0 -60
-4 -60 -10z"/>
<path d="M689 363 c-12 -38 -24 -74 -27 -80 -2 -7 1 -13 7 -13 6 0 16 11 21
25 7 18 17 25 35 25 18 0 28 -7 35 -25 5 -14 14 -25 19 -25 5 0 -3 36 -17 80
-14 44 -32 80 -38 80 -7 0 -22 -30 -35 -67z m50 -10 c1 -7 -8 -13 -18 -13 -18
0 -19 3 -9 32 10 28 12 30 19 12 4 -10 8 -25 8 -31z"/>
<path d="M810 350 c0 -47 4 -80 10 -80 6 0 10 14 10 30 0 23 4 30 20 30 15 0
22 -9 27 -30 3 -16 12 -30 19 -30 12 0 12 6 -1 37 -11 25 -12 40 -5 47 17 17
11 55 -9 66 -11 5 -31 10 -45 10 -26 0 -26 -1 -26 -80z m65 30 c0 -18 -6 -26
-22 -28 -20 -3 -23 1 -23 28 0 27 3 31 23 28 16 -2 22 -10 22 -28z"/>
<path d="M930 350 c0 -47 4 -80 10 -80 6 0 10 33 10 80 0 47 -4 80 -10 80 -6
0 -10 -33 -10 -80z"/>
<path d="M998 350 c-14 -44 -22 -80 -17 -80 5 0 14 11 19 25 7 18 17 25 35 25
18 0 28 -7 35 -25 5 -14 15 -25 21 -25 6 0 9 6 7 13 -3 6 -15 42 -27 80 -13
37 -28 67 -35 67 -6 0 -24 -36 -38 -80z m45 -8 c-21 -5 -25 2 -17 34 l7 29 13
-30 c10 -25 10 -31 -3 -33z"/>
<path d="M1120 350 c0 -47 4 -80 10 -80 6 0 10 28 10 63 l0 62 40 -62 c22 -35
45 -63 50 -63 6 0 10 35 10 80 0 47 -4 80 -10 80 -6 0 -10 -28 -10 -62 l0 -63
-37 63 c-51 85 -63 82 -63 -18z"/>
</g>
</svg>
